<svg viewBox="0 0 600 133" fill="none" xmlns="http://www.w3.org/2000/svg">
<g>
<path d="M211.068 80.4125H179.103L172.554 98.3885H156.357L186.542 19.7162H204.299L234.265 98.3885H217.617L211.068 80.4125ZM184.212 66.4257H205.959L195.081 36.6824L184.212 66.4257Z" fill="#212529"/>
<path d="M256.402 68.7552V98.3785H241.084V19.7062H270.489C286.027 19.7062 296.346 30.0239 296.346 44.2307C296.346 58.5475 286.027 68.7552 270.489 68.7552H256.402V68.7552ZM268.61 55.5482C276.269 55.5482 280.928 51.1092 280.928 44.3407C280.928 37.3523 276.269 33.0232 268.61 33.0232H256.511V55.5482H268.61Z" fill="#212529"/>
<path d="M303.964 98.3885V19.7062H319.502V98.3785H303.964V98.3885Z" fill="#212529"/>
<path d="M343.099 78.9622C348.758 78.9622 353.307 83.5112 353.307 89.0599C353.307 94.6087 348.758 99.1576 343.099 99.1576C337.549 99.1576 333 94.6087 333 89.0599C333 83.5112 337.549 78.9622 343.099 78.9622Z" fill="#212529"/>
<path d="M395.061 19.7062C410.378 19.7062 419.027 28.6942 419.027 40.9015C419.027 48.9996 414.148 55.5481 407.599 57.7676C415.258 59.6572 421.467 66.6456 421.467 76.4134C421.467 89.1706 411.918 98.3885 397.16 98.3885H366.755V19.7062H395.061ZM392.731 52.2189C399.72 52.2189 403.939 48.3398 403.939 42.3411C403.939 36.3525 400.06 32.5733 392.621 32.5733H381.853V52.2189H392.731ZM394.281 85.6214C401.72 85.6214 406.159 81.7422 406.159 75.4137C406.159 69.1951 402.16 64.876 394.511 64.876H381.863V85.6314H394.281V85.6214Z" fill="#212529"/>
<path d="M438.194 16.7162C443.303 16.7162 447.293 20.8253 447.293 25.9242C447.293 30.8031 443.293 34.9121 438.194 34.9121C433.195 34.9121 429.096 30.8031 429.096 25.9242C429.086 20.8153 433.195 16.7162 438.194 16.7162ZM430.865 98.3878V43.7901H445.623V98.3878H430.865Z" fill="#212529"/>
<path d="M457.621 98.3881V18.0462H472.159V49.7791C474.599 45.9 480.588 42.3408 488.697 42.3408C504.674 42.3408 513.893 54.658 513.893 70.8543C513.893 87.3906 503.684 99.7078 488.147 99.7078C480.598 99.7078 474.829 96.3786 471.939 91.7196V98.3781H457.621V98.3881ZM485.587 55.5478C478.148 55.5478 471.939 60.9865 471.939 70.9743C471.939 80.8521 478.158 86.5108 485.587 86.5108C493.136 86.5108 499.125 80.962 499.125 70.9743C499.125 60.9865 493.136 55.5478 485.587 55.5478Z" fill="#212529"/>
<path d="M522.752 98.3881V18.0462H537.509V98.3881H522.752Z" fill="#212529"/>
<path d="M599.22 82.7413C596.45 92.1692 587.792 100.057 574.364 100.057C559.386 100.057 546.178 89.2899 546.178 70.874C546.178 53.4479 559.056 42.1305 573.034 42.1305C589.901 42.1305 600 52.8981 600 70.4241C600 72.5336 599.78 74.7531 599.78 74.9731H560.716C561.046 82.1815 567.155 87.4003 574.474 87.4003C581.353 87.4003 585.132 83.9611 586.902 79.0822L599.22 82.7413ZM585.462 64.8754C585.242 59.4366 581.693 54.1078 573.254 54.1078C565.595 54.1078 561.376 59.8765 561.046 64.8754H585.462Z" fill="#212529"/>
<path d="M71.4893 133C68.2098 133 64.9303 131.82 62.3207 129.451C55.0317 122.852 35.7146 107.396 13.7779 106.336C8.88868 106.106 4.99926 102.257 4.7393 97.408L0.0100109 9.96776C-0.129968 7.33835 0.849885 4.74893 2.69961 2.85936C4.56933 0.949791 7.16894 -0.0899743 9.84853 0.0100031C31.6553 0.759834 52.8721 8.64805 69.5896 22.215C70.2295 22.7349 70.8694 23.2648 71.4893 23.7946C72.1092 23.2648 72.7491 22.7349 73.389 22.215C90.1065 8.64805 111.323 0.759834 133.13 0.0100031C135.8 -0.0899743 138.409 0.959789 140.279 2.85936C142.129 4.74893 143.109 7.33835 142.969 9.96776L138.239 97.398C137.979 102.257 134.09 106.096 129.201 106.326C107.264 107.386 87.9568 122.842 80.6679 129.441C78.0483 131.81 74.7688 133 71.4893 133ZM17.5474 93.5689C41.3438 95.8784 61.1308 110.835 71.0394 119.803C71.2793 120.023 71.6992 120.023 71.9392 119.803C81.8477 110.835 101.635 95.8684 125.431 93.5689L129.781 13.207C106.184 15.0366 89.5866 25.8142 81.5878 32.3027C81.3078 32.5327 81.0278 32.7626 80.7479 32.9926C88.8467 42.4304 93.466 52.4582 93.326 60.9463C93.176 69.8243 87.3569 79.3221 71.4993 79.3221C55.6417 79.3221 49.8225 69.8343 49.6726 60.9463C49.5226 52.4482 54.1519 42.4204 62.2407 32.9926C61.9607 32.7626 61.6807 32.5327 61.4008 32.3027C53.402 25.8142 36.8045 15.0266 13.208 13.207L17.5474 93.5689ZM71.4893 42.2005C65.3902 49.5588 62.5906 56.4273 62.6606 60.7263C62.6906 62.5459 62.7606 66.325 71.4893 66.325C80.218 66.325 80.288 62.5459 80.318 60.7263C80.3979 56.4273 77.5984 49.5588 71.4893 42.2005Z" fill="#0C68F1"/>
</g>
</svg>
